<?xml version="1.0" standalone="no"?>
<!DOCTYPE svg PUBLIC "-//W3C//DTD SVG 20010904//EN"
 "http://www.w3.org/TR/2001/REC-SVG-20010904/DTD/svg10.dtd">
<svg version="1.0" xmlns="http://www.w3.org/2000/svg"
 width="200.000000pt" height="200.000000pt" viewBox="0 0 200.000000 200.000000"
 preserveAspectRatio="xMidYMid meet">
<metadata>
Created by potrace 1.14, written by Peter Selinger 2001-2017
</metadata>
<g transform="translate(0.000000,200.000000) scale(0.100000,-0.100000)"
fill="#000000" stroke="none">
<path d="M0 1000 l0 -1000 1000 0 1000 0 0 1000 0 1000 -1000 0 -1000 0 0
-1000z m468 231 c6 -14 24 -63 41 -108 l30 -83 -23 0 c-17 0 -26 7 -30 25 -6
22 -12 25 -51 25 -39 0 -47 -4 -57 -25 -10 -23 -48 -36 -48 -16 0 17 74 206
83 212 17 12 46 -3 55 -30z m282 1 l0 -38 47 0 c45 1 48 -1 58 -30 6 -18 9
-53 7 -78 -3 -37 -8 -46 -23 -46 -16 0 -19 8 -19 54 0 60 -19 88 -48 69 -12
-7 -18 -27 -20 -67 -3 -52 -5 -56 -27 -56 l-25 0 0 115 0 115 25 0 c22 0 25
-4 25 -38z m343 -12 c-4 -16 0 -20 21 -20 19 0 26 -5 26 -20 0 -13 -7 -20 -20
-20 -11 0 -20 -3 -21 -7 0 -5 -2 -16 -4 -27 -5 -28 5 -46 26 -46 12 0 19 -7
19 -20 0 -15 -7 -20 -29 -20 -42 0 -61 24 -61 75 0 29 -5 45 -15 49 -8 3 -15
12 -15 21 0 8 7 15 15 15 8 0 15 9 15 20 0 14 7 20 24 20 19 0 23 -4 19 -20z
m-429 -36 c9 -8 16 -20 16 -25 0 -12 -37 -12 -45 1 -3 6 -15 10 -26 10 -34 0
-16 -24 24 -33 48 -12 64 -39 42 -73 -12 -18 -24 -24 -53 -24 -37 0 -82 22
-82 41 0 13 44 11 57 -2 13 -13 43 -5 43 10 0 5 -19 15 -42 23 -46 14 -61 45
-38 74 16 19 85 18 104 -2z m340 -6 c14 -23 0 -35 -24 -20 -11 7 -27 12 -36
12 -25 0 -11 -23 22 -33 41 -14 54 -26 54 -53 0 -45 -90 -62 -125 -24 -25 28
-12 36 31 21 26 -9 39 -10 47 -2 7 7 -3 16 -35 30 -57 24 -64 35 -43 67 14 21
23 25 57 22 25 -2 45 -10 52 -20z m284 2 c15 -15 22 -33 22 -60 0 -50 -30 -80
-79 -80 -72 0 -109 86 -61 138 27 29 88 30 118 2z m82 8 c0 -9 3 -9 12 0 7 7
29 12 50 12 47 0 58 -18 58 -99 0 -54 -2 -61 -20 -61 -16 0 -19 8 -22 56 -2
40 -8 60 -20 67 -29 19 -48 -9 -48 -69 0 -51 -1 -54 -25 -54 -25 0 -25 1 -25
80 0 73 2 80 20 80 11 0 20 -5 20 -12z m279 -5 c11 -10 22 -29 23 -43 3 -24 0
-25 -61 -30 -62 -5 -64 -6 -47 -22 20 -21 37 -23 53 -7 6 6 21 9 34 7 l24 -3
-22 -22 c-32 -32 -86 -31 -118 2 -51 50 -17 135 55 135 21 0 47 -8 59 -17z
m-1183 -244 c7 -6 14 -19 17 -29 4 -16 0 -20 -18 -20 -12 0 -28 7 -35 15 -16
19 -46 19 -54 0 -5 -15 28 -45 50 -45 6 0 23 -9 38 -21 33 -26 35 -71 4 -93
-49 -34 -138 -11 -138 36 0 24 32 23 48 -2 14 -24 45 -26 62 -5 16 19 0 40
-38 50 -15 3 -37 13 -49 21 -41 26 -25 88 27 107 18 7 71 -2 86 -14z m515 14
c0 -5 1 -56 2 -114 l2 -107 -68 0 c-55 -1 -72 3 -88 19 -27 27 -25 86 3 116
24 25 76 31 96 11 9 -9 12 -2 12 35 0 40 3 47 20 47 11 0 20 -3 21 -7z m77
-16 c4 -20 -25 -34 -40 -19 -15 15 -1 44 19 40 10 -2 19 -11 21 -21z m-488
-27 c0 -13 7 -20 20 -20 13 0 20 -7 20 -20 0 -13 -7 -20 -20 -20 -17 0 -20 -7
-20 -40 0 -33 3 -40 20 -40 13 0 20 -7 20 -20 0 -15 -7 -20 -29 -20 -39 0 -56
24 -53 76 1 33 -2 44 -13 44 -8 0 -15 9 -15 20 0 11 7 20 15 20 8 0 15 9 15
20 0 13 7 20 20 20 13 0 20 -7 20 -20z m100 -74 c0 -59 16 -82 49 -71 16 5 21
16 23 63 3 50 6 57 26 60 21 3 22 1 22 -77 0 -74 -2 -81 -20 -81 -11 0 -20 5
-20 12 0 9 -3 9 -12 0 -7 -7 -29 -12 -50 -12 -47 0 -58 18 -58 99 0 54 2 61
20 61 18 0 20 -7 20 -54z m382 -10 c4 -82 1 -96 -23 -96 -17 0 -19 8 -19 80 0
72 2 80 19 80 17 0 20 -9 23 -64z m163 39 c51 -50 17 -135 -54 -135 -66 0
-102 49 -80 109 22 55 92 69 134 26z m157 8 c10 -9 18 -20 18 -25 0 -12 -27
-10 -50 4 -15 10 -22 10 -31 1 -10 -10 -6 -15 15 -23 15 -5 34 -10 42 -10 8 0
20 -11 26 -25 17 -37 -12 -65 -68 -65 -33 0 -46 5 -59 23 -15 21 -14 22 6 25
12 2 26 -1 32 -7 15 -15 47 -14 47 2 0 7 -19 19 -42 27 -33 11 -44 21 -46 39
-7 46 70 70 110 34z"/>
<path d="M415 1170 c-9 -41 -7 -45 18 -42 29 5 29 4 16 40 -14 40 -26 41 -34
2z"/>
<path d="M1206 1154 c-30 -30 -16 -74 24 -74 42 0 57 60 21 80 -25 13 -27 13
-45 -6z"/>
<path d="M1573 1163 c-26 -10 -12 -23 23 -23 31 0 35 2 24 15 -13 15 -25 17
-47 8z"/>
<path d="M862 838 c-18 -18 -15 -42 7 -62 37 -33 82 4 66 54 -7 23 -53 28 -73
8z"/>
<path d="M1137 849 c-24 -14 -22 -65 2 -79 26 -13 50 -3 57 26 10 38 -26 71
-59 53z"/>
</g>
</svg>
