<svg version="1.0" xmlns="http://www.w3.org/2000/svg" width="266.667" height="266.667" viewBox="0 0 200 200"><path d="M0 100v100h200V0H0v100zm46.8-23.1c.6 1.4 2.4 6.3 4.1 10.8l3 8.3h-2.3c-1.7 0-2.6-.7-3-2.5-.6-2.2-1.2-2.5-5.1-2.5-3.9 0-4.7.4-5.7 2.5-1 2.3-4.8 3.6-4.8 1.6 0-1.7 7.4-20.6 8.3-21.2 1.7-1.2 4.6.3 5.5 3zm28.2-.1v3.8h4.7c4.5-.1 4.8.1 5.8 3 .6 1.8.9 5.3.7 7.8-.3 3.7-.8 4.6-2.3 4.6-1.6 0-1.9-.8-1.9-5.4 0-6-1.9-8.8-4.8-6.9-1.2.7-1.8 2.7-2 6.7-.3 5.2-.5 5.6-2.7 5.6H70V73h2.5c2.2 0 2.5.4 2.5 3.8zm34.3 1.2c-.4 1.6 0 2 2.1 2 1.9 0 2.6.5 2.6 2 0 1.3-.7 2-2 2-1.1 0-2 .3-2.1.7 0 .5-.2 1.6-.4 2.7-.5 2.8.5 4.6 2.6 4.6 1.2 0 1.9.7 1.9 2 0 1.5-.7 2-2.9 2-4.2 0-6.1-2.4-6.1-7.5 0-2.9-.5-4.5-1.5-4.9-.8-.3-1.5-1.2-1.5-2.1 0-.8.7-1.5 1.5-1.5s1.5-.9 1.5-2c0-1.4.7-2 2.4-2 1.9 0 2.3.4 1.9 2zm-42.9 3.6c.9.8 1.6 2 1.6 2.5 0 1.2-3.7 1.2-4.5-.1-.3-.6-1.5-1-2.6-1-3.4 0-1.6 2.4 2.4 3.3 4.8 1.2 6.4 3.9 4.2 7.3-1.2 1.8-2.4 2.4-5.3 2.4-3.7 0-8.2-2.2-8.2-4.1 0-1.3 4.4-1.1 5.7.2 1.3 1.3 4.3.5 4.3-1 0-.5-1.9-1.5-4.2-2.3-4.6-1.4-6.1-4.5-3.8-7.4 1.6-1.9 8.5-1.8 10.4.2zm34 .6c1.4 2.3 0 3.5-2.4 2-1.1-.7-2.7-1.2-3.6-1.2-2.5 0-1.1 2.3 2.2 3.3 4.1 1.4 5.4 2.6 5.4 5.3 0 4.5-9 6.2-12.5 2.4-2.5-2.8-1.2-3.6 3.1-2.1 2.6.9 3.9 1 4.7.2.7-.7-.3-1.6-3.5-3-5.7-2.4-6.4-3.5-4.3-6.7 1.4-2.1 2.3-2.5 5.7-2.2 2.5.2 4.5 1 5.2 2zm28.4-.2c1.5 1.5 2.2 3.3 2.2 6 0 5-3 8-7.9 8-7.2 0-10.9-8.6-6.1-13.8 2.7-2.9 8.8-3 11.8-.2zm8.2-.8c0 .9.3.9 1.2 0 .7-.7 2.9-1.2 5-1.2 4.7 0 5.8 1.8 5.8 9.9 0 5.4-.2 6.1-2 6.1-1.6 0-1.9-.8-2.2-5.6-.2-4-.8-6-2-6.7-2.9-1.9-4.8.9-4.8 6.9 0 5.1-.1 5.4-2.5 5.4-2.5 0-2.5-.1-2.5-8 0-7.3.2-8 2-8 1.1 0 2 .5 2 1.2zm27.9.5c1.1 1 2.2 2.9 2.3 4.3.3 2.4 0 2.5-6.1 3-6.2.5-6.4.6-4.7 2.2 2 2.1 3.7 2.3 5.3.7.6-.6 2.1-.9 3.4-.7l2.4.3-2.2 2.2c-3.2 3.2-8.6 3.1-11.8-.2-5.1-5-1.7-13.5 5.5-13.5 2.1 0 4.7.8 5.9 1.7zM46.6 106.1c.7.6 1.4 1.9 1.7 2.9.4 1.6 0 2-1.8 2-1.2 0-2.8-.7-3.5-1.5-1.6-1.9-4.6-1.9-5.4 0-.5 1.5 2.8 4.5 5 4.5.6 0 2.3.9 3.8 2.1 3.3 2.6 3.5 7.1.4 9.3-4.9 3.4-13.8 1.1-13.8-3.6 0-2.4 3.2-2.3 4.8.2 1.4 2.4 4.5 2.6 6.2.5 1.6-1.9 0-4-3.8-5-1.5-.3-3.7-1.3-4.9-2.1-4.1-2.6-2.5-8.8 2.7-10.7 1.8-.7 7.1.2 8.6 1.4zm51.5-1.4c0 .5.1 5.6.2 11.4l.2 10.7h-6.8c-5.5.1-7.2-.3-8.8-1.9-2.7-2.7-2.5-8.6.3-11.6 2.4-2.5 7.6-3.1 9.6-1.1.9.9 1.2.2 1.2-3.5 0-4 .3-4.7 2-4.7 1.1 0 2 .3 2.1.7zm7.7 1.6c.4 2-2.5 3.4-4 1.9s-.1-4.4 1.9-4c1 .2 1.9 1.1 2.1 2.1zM57 109c0 1.3.7 2 2 2s2 .7 2 2-.7 2-2 2c-1.7 0-2 .7-2 4s.3 4 2 4c1.3 0 2 .7 2 2 0 1.5-.7 2-2.9 2-3.9 0-5.6-2.4-5.3-7.6.1-3.3-.2-4.4-1.3-4.4-.8 0-1.5-.9-1.5-2s.7-2 1.5-2 1.5-.9 1.5-2c0-1.3.7-2 2-2s2 .7 2 2zm10 7.4c0 5.9 1.6 8.2 4.9 7.1 1.6-.5 2.1-1.6 2.3-6.3.3-5 .6-5.7 2.6-6 2.1-.3 2.2-.1 2.2 7.7 0 7.4-.2 8.1-2 8.1-1.1 0-2-.5-2-1.2 0-.9-.3-.9-1.2 0-.7.7-2.9 1.2-5 1.2-4.7 0-5.8-1.8-5.8-9.9 0-5.4.2-6.1 2-6.1s2 .7 2 5.4zm38.2 1c.4 8.2.1 9.6-2.3 9.6-1.7 0-1.9-.8-1.9-8s.2-8 1.9-8 2 .9 2.3 6.4zm16.3-3.9c5.1 5 1.7 13.5-5.4 13.5-6.6 0-10.2-4.9-8-10.9 2.2-5.5 9.2-6.9 13.4-2.6zm15.7-.8c1 .9 1.8 2 1.8 2.5 0 1.2-2.7 1-5-.4-1.5-1-2.2-1-3.1-.1-1 1-.6 1.5 1.5 2.3 1.5.5 3.4 1 4.2 1 .8 0 2 1.1 2.6 2.5 1.7 3.7-1.2 6.5-6.8 6.5-3.3 0-4.6-.5-5.9-2.3-1.5-2.1-1.4-2.2.6-2.5 1.2-.2 2.6.1 3.2.7 1.5 1.5 4.7 1.4 4.7-.2 0-.7-1.9-1.9-4.2-2.7-3.3-1.1-4.4-2.1-4.6-3.9-.7-4.6 7-7 11-3.4z"/><path d="M41.5 83c-.9 4.1-.7 4.5 1.8 4.2 2.9-.5 2.9-.4 1.6-4-1.4-4-2.6-4.1-3.4-.2zm79.1 1.6c-3 3-1.6 7.4 2.4 7.4 4.2 0 5.7-6 2.1-8-2.5-1.3-2.7-1.3-4.5.6zm36.7-.9c-2.6 1-1.2 2.3 2.3 2.3 3.1 0 3.5-.2 2.4-1.5-1.3-1.5-2.5-1.7-4.7-.8zm-71.1 32.5c-1.8 1.8-1.5 4.2.7 6.2 3.7 3.3 8.2-.4 6.6-5.4-.7-2.3-5.3-2.8-7.3-.8zm27.5-1.1c-2.4 1.4-2.2 6.5.2 7.9 2.6 1.3 5 .3 5.7-2.6 1-3.8-2.6-7.1-5.9-5.3z"/></svg>