<svg width="164" height="24" fill="none" xmlns="http://www.w3.org/2000/svg"><path fill-rule="evenodd" clip-rule="evenodd" d="M27.87 24c5.86 0 10.67-4.737 10.67-10.528 0-3.044-1.068-5.619-3.244-7.796L32.963 3.33C30.957 1.323 28.239 0 25.18 0c-5.89 0-10.67 4.752-10.67 10.641 0 3.102 1.295 5.776 3.315 7.768l1.892 1.878C22.435 22.976 24.654 24 27.87 24zm-11.41-.341H2.988L0 20.67V.398h4.851l3.13 2.974v12.704h5.491l2.988 2.987v4.596zM5.008 1.252v14.824h2.46V3.599l-2.46-2.347zm-2.76 17.427V2.504h.512v15.692h8.778v.483h-9.29zm-1.38 2.149l2.319 2.318h12.76v-3.883l-2.318-2.32v3.884H.868zM16.802 10.64c0 4.724 3.713 8.48 8.379 8.48 4.666 0 8.38-3.756 8.38-8.48 0-4.694-3.7-8.45-8.38-8.45-4.723.043-8.38 3.741-8.38 8.45zm8.379 7.996c4.396 0 7.853-3.529 7.853-7.996 0-4.452-3.457-7.966-7.853-7.966s-7.853 3.514-7.853 7.966c0 4.467 3.457 7.996 7.853 7.996zm-5.577-8.01c.029 2.12.868 3.841 2.504 4.922-.299-.697-.47-1.48-.47-2.503 0-3.514 2.675-6.288 6.09-6.288.768 0 1.422.17 2.034.483-1.039-1.494-2.69-2.347-4.581-2.376-3.13 0-5.563 2.504-5.577 5.762zm8.266 12.86c-3.03 0-5.307-.938-7.825-3.527 1.565.853 3.315 1.351 5.136 1.351 5.89 0 10.67-4.78 10.67-10.67-.057-1.92-.413-3.428-1.295-5.022 2.376 2.32 3.471 4.695 3.471 7.853 0 5.506-4.58 10.016-10.157 10.016zm-4.909-7.482a5.615 5.615 0 002.22.44c3.115 0 5.576-2.546 5.576-5.804 0-.939-.184-1.792-.526-2.546-.725-.57-1.522-.825-2.504-.825-3.13 0-5.576 2.518-5.576 5.776 0 1.351.241 2.205.81 2.959zM53.08 24c2.703 0 6.075-.74 7.739-1.693v-10.57l-3.13-2.974h-8.123v4.197l2.831 2.703.526.029v.54a8.667 8.667 0 01-2.077.242c-1.166 0-2.219-.213-3.115-.611-.598-.726-.882-1.608-.882-2.803 0-3.557 2.546-5.961 6.26-5.961 2.375 0 4.922.982 6.458 2.02V4.154l-2.959-2.959C54.729.355 52.154 0 50.376 0c-6.288 0-11.054 4.424-11.054 10.656 0 3.2 1.266 5.918 3.329 7.924l2.304 2.248C47.09 22.904 49.808 24 53.08 24zm-8.636-13.259c0 2.02.84 3.614 2.462 4.68-.385-.654-.57-1.408-.57-2.375 0-3.827 2.803-6.46 6.786-6.46 2.02 0 4.169.684 5.933 1.651V4.353l-2.319-2.319V6.43c-1.238-.939-3.542-1.593-5.662-1.593-3.97 0-6.63 2.319-6.63 5.904zm5.805 8.394c-5.05 0-8.621-3.529-8.621-8.494 0-4.865 3.656-8.35 8.763-8.35 1.295 0 3.087.227 4.282.625v.527c-1.138-.427-2.959-.669-4.282-.669-4.823 0-8.237 3.272-8.237 7.867 0 4.71 3.329 8.01 8.095 8.01 1.48 0 3.4-.356 4.88-.925v-6.544h-3.472v-.484h3.984v7.341c-1.523.654-3.685 1.096-5.392 1.096zm-5.548.782c2.475 2.504 4.936 3.57 8.379 3.57 2.475 0 5.562-.64 7.227-1.493v-10.03l-2.461-2.347v9.845c-1.636 1.053-4.923 1.85-7.64 1.85-1.878 0-3.813-.499-5.505-1.395zm8.222-4.752l-.298-.014-2.191-2.034h2.49v2.048zm33.49-1.693c0 5.79-4.809 10.528-10.67 10.528-3.216 0-5.435-1.024-8.152-3.713l-1.892-1.878c-2.02-1.992-3.315-4.666-3.315-7.768C62.383 4.751 67.163 0 73.053 0c3.059 0 5.776 1.323 7.782 3.329l2.333 2.347c2.176 2.177 3.243 4.752 3.243 7.796zm-13.36 5.648c-4.666 0-8.379-3.755-8.379-8.479 0-4.709 3.657-8.407 8.38-8.45 4.68 0 8.38 3.756 8.38 8.45 0 4.724-3.714 8.48-8.38 8.48zm7.854-8.479c0 4.467-3.457 7.996-7.853 7.996S65.2 15.108 65.2 10.64c0-4.452 3.457-7.966 7.853-7.966s7.853 3.514 7.853 7.966zM69.98 15.55c-1.636-1.082-2.476-2.803-2.504-4.923.014-3.258 2.447-5.762 5.577-5.762 1.892.029 3.542.882 4.58 2.376a4.34 4.34 0 00-2.034-.483c-3.414 0-6.089 2.774-6.089 6.288 0 1.024.171 1.806.47 2.504zm-2.063 4.41c2.518 2.589 4.794 3.528 7.825 3.528 5.576 0 10.157-4.51 10.157-10.016 0-3.158-1.095-5.534-3.471-7.853.882 1.594 1.238 3.102 1.295 5.022 0 5.89-4.78 10.67-10.67 10.67-1.821 0-3.571-.498-5.136-1.351zm5.136-3.514c-.811 0-1.55-.157-2.22-.441-.569-.754-.81-1.608-.81-2.96 0-3.257 2.447-5.775 5.576-5.775.982 0 1.779.256 2.504.825.342.754.527 1.607.527 2.546 0 3.258-2.462 5.805-5.577 5.805zm25.124 7.213h-4.994l-2.987-2.988V7.953h-2.362l-2.987-2.988V.398h15.549l2.988 2.988v4.567h-5.207v15.706zm-4.795-.513l-2.319-2.319h4.14V5.123h5.35V1.266l2.318 2.32V7.44h-5.206v15.706h-4.283zm-.939-20.158v15.734h.513V2.988h5.505v-.47H86.938v.47h5.505zm-4.41 4.452l-2.319-2.318h4.482V7.44h-2.163zm30.374 16.219h-4.994l-2.987-2.988v-7.995L102.473.398h6.117l4.724 2.903 1.081 1.806 2.802-4.709h5.848l2.162 2.789-6.8 10.271v10.2zm-4.795-.513l-2.318-2.319h4.139v-8.151l7.498-11.58 1.65 2.12-6.686 10.1v9.83h-4.283zm-4.339-21.723l3.657 6.131 1.166-1.949-1.152-1.935-3.671-2.247zm3.401 17.299v-6.601l-6.047-9.617h.598l5.705 9.162 5.733-9.162h.597l-6.074 9.645v6.573h-.512zm21.681 4.937h-4.994l-2.987-2.988V.398h8.052c2.404 0 4.438.897 5.847 2.305l2.29 2.29c1.437 1.437 2.092 3.088 2.092 5.264 0 4.126-3.557 7.37-8.109 7.37h-2.191v6.032zm-5.734-4.937V2.418h5.805c3.201 0 5.406 2.035 5.406 5.008 0 3.187-2.404 5.506-5.691 5.506h-5.007v5.79h-.513zm5.52-6.274h-5.008V2.902h5.293c2.916 0 4.879 1.821 4.879 4.524 0 2.917-2.176 5.022-5.164 5.022zm-4.581 10.698l-2.319-2.319h4.14v-5.89h2.76c4.538 0 7.953-3.214 7.967-7.482 0-1.025-.185-1.935-.583-2.817 2.006 1.892 2.617 3.187 2.617 5.62 0 3.84-3.314 6.856-7.597 6.856h-2.703v6.032h-4.282zm1.821-18.224v5.52h2.177V7.1h3.428c-.241-1.28-1.266-2.148-2.617-2.177h-2.988zm2.689 5.52v-2.83h2.973v.099a2.705 2.705 0 01-2.731 2.731h-.242zm29.107 13.217h-13.899l-2.987-2.988V.398h13.501l2.987 2.988V7.24h-8.707v.868h4.382l2.988 2.988v4.253h-7.37v.868h6.118l2.987 2.988v4.453zm-11.936-15.55V4.951h8.707V1.266l2.319 2.32v3.143h-8.707v1.38h-2.319zm-2.745-5.676v16.332h9.759v-.484h-9.247v-7.597h7.511V10.2h-7.511V2.916h8.849v-.483h-9.361zm2.745 13.785v-3.443h7.37V8.977l2.319 2.319v3.542h-7.37v1.38h-2.319zm-4.083 4.61l2.319 2.318h13.188v-3.741l-2.319-2.32v3.742h-13.188z" fill="#000"/></svg>